<svg width="168" height="32" viewBox="0 0 168 32" fill="none" xmlns="http://www.w3.org/2000/svg">
  <rect width="32" height="32" rx="8" fill="#FFD600"/>
  <path d="M8 9H24V13H18V24H14V13H8V9Z" fill="#0A0A0A"/>
  <path d="M43.1 22V10.8H47.02L50.42 17.52L53.82 10.8H57.72V22H54.62V15.64L52.02 20.8H48.82L46.2 15.64V22H43.1Z" fill="#F5F5F5"/>
  <path d="M60.3648 22V10.8H69.1648V13.44H63.6648V15.14H68.6248V17.68H63.6648V19.36H69.3248V22H60.3648Z" fill="#F5F5F5"/>
  <path d="M71.3741 22V10.8H74.6741V19.22H79.8541V22H71.3741Z" fill="#F5F5F5"/>
  <path d="M81.3835 22V10.8H90.1835V13.44H84.6835V15.14H89.6435V17.68H84.6835V19.36H90.3435V22H81.3835Z" fill="#F5F5F5"/>
  <path d="M96.3899 22.24C94.6299 22.24 93.1832 21.7067 92.0499 20.64C90.9165 19.56 90.3499 18.1467 90.3499 16.4C90.3499 14.6533 90.9165 13.2467 92.0499 12.18C93.1832 11.1 94.6299 10.56 96.3899 10.56C98.5365 10.56 100.19 11.34 101.35 12.9L98.7699 14.68C98.1299 13.8667 97.3432 13.46 96.4099 13.46C95.5832 13.46 94.9032 13.7333 94.3699 14.28C93.8365 14.8267 93.5699 15.5333 93.5699 16.4C93.5699 17.2667 93.8365 17.9733 94.3699 18.52C94.9032 19.0667 95.5832 19.34 96.4099 19.34C97.3432 19.34 98.1299 18.9333 98.7699 18.12L101.35 19.9C100.19 21.46 98.5365 22.24 96.3899 22.24Z" fill="#F5F5F5"/>
  <path d="M105.649 22V13.58H102.269V10.8H112.329V13.58H108.949V22H105.649Z" fill="#F5F5F5"/>
  <path d="M113.632 22V10.8H118.472C119.992 10.8 121.205 11.18 122.112 11.94C123.032 12.7 123.492 13.7533 123.492 15.1C123.492 16.42 123.032 17.4667 122.112 18.24C121.205 19 119.992 19.38 118.472 19.38H116.932V22H113.632ZM116.932 16.76H118.212C118.812 16.76 119.272 16.62 119.592 16.34C119.925 16.06 120.092 15.6467 120.092 15.1C120.092 14.54 119.925 14.12 119.592 13.84C119.272 13.56 118.812 13.42 118.212 13.42H116.932V16.76Z" fill="#F5F5F5"/>
  <path d="M125.045 22V10.8H128.345V19.22H133.525V22H125.045Z" fill="#F5F5F5"/>
  <path d="M134.915 22V10.8H138.215V22H134.915Z" fill="#F5F5F5"/>
  <path d="M145.731 22.24C143.971 22.24 142.524 21.7067 141.391 20.64C140.258 19.56 139.691 18.1467 139.691 16.4C139.691 14.6533 140.258 13.2467 141.391 12.18C142.524 11.1 143.971 10.56 145.731 10.56C147.878 10.56 149.531 11.34 150.691 12.9L148.111 14.68C147.471 13.8667 146.684 13.46 145.751 13.46C144.924 13.46 144.244 13.7333 143.711 14.28C143.178 14.8267 142.911 15.5333 142.911 16.4C142.911 17.2667 143.178 17.9733 143.711 18.52C144.244 19.0667 144.924 19.34 145.751 19.34C146.684 19.34 147.471 18.9333 148.111 18.12L150.691 19.9C149.531 21.46 147.878 22.24 145.731 22.24Z" fill="#F5F5F5"/>
  <path d="M152.856 22V10.8H161.656V13.44H156.156V15.14H161.116V17.68H156.156V19.36H161.816V22H152.856Z" fill="#F5F5F5"/>
</svg>
